<?xml version="1.0" encoding="UTF-8"?> <svg xmlns="http://www.w3.org/2000/svg" width="61.481" height="56.866" viewBox="0 0 61.481 56.866"><defs><style>.a{fill:#ffc107;}</style></defs><g transform="translate(0 -2.307)"><path class="a" d="M53.976,34.91l-6.9,6.9-1.693-1.693a1.042,1.042,0,1,0-1.473,1.473l2.429,2.429a1.041,1.041,0,0,0,1.472,0l7.637-7.635a1.041,1.041,0,0,0-1.471-1.473Z"></path><path class="a" d="M27.734,21.436a1.041,1.041,0,0,0,1.472,0l8.38-8.382a1.042,1.042,0,1,0-1.473-1.473L28.47,19.226l-1.933-1.933a1.042,1.042,0,1,0-1.473,1.473Z"></path><path class="a" d="M16.8,44.306a1.041,1.041,0,0,0-1.473,0l-4.419,4.419-.9-.9a1.042,1.042,0,1,0-1.473,1.473l1.64,1.642a1.041,1.041,0,0,0,1.472,0L16.8,45.78A1.041,1.041,0,0,0,16.8,44.306Z"></path><path class="a" d="M58.356,25.572H58.04V6.677a4.383,4.383,0,0,0-4.4-4.37H5.041a4.376,4.376,0,0,0-4.37,4.37V32.688a4.384,4.384,0,0,0,4.4,4.372H26.034L25.07,40.3a3.11,3.11,0,0,0-1.741-.532H3.125A3.129,3.129,0,0,0,0,42.892V52.37a3.129,3.129,0,0,0,3.125,3.125h20.2a3.129,3.129,0,0,0,3.125-3.125v-.61H37.028v4.288a3.129,3.129,0,0,0,3.125,3.125h18.2a3.129,3.129,0,0,0,3.125-3.125V28.7a3.129,3.129,0,0,0-3.125-3.125ZM59.4,28.7V52.082H39.111V28.7a1.044,1.044,0,0,1,1.042-1.042h18.2A1.044,1.044,0,0,1,59.4,28.7ZM37.027,39.465v5.074l-.806-.161a2.292,2.292,0,0,1-1.774-1.7L33.081,37.06h3.945v2.4ZM5.042,4.39H53.671a2.289,2.289,0,0,1,2.287,2.287V25.572H40.153a3.118,3.118,0,0,0-3.087,2.75H2.756V6.677A2.288,2.288,0,0,1,5.042,4.39Zm0,30.587a2.291,2.291,0,0,1-2.287-2.289V30.4H37.028v4.571H5.042Zm-2.958,17.4V42.894a1.044,1.044,0,0,1,1.042-1.042H20.339V53.413H3.126a1.044,1.044,0,0,1-1.042-1.041Zm22.289,0a1.044,1.044,0,0,1-1.042,1.042h-.909V41.852h.909a1.044,1.044,0,0,1,1.042,1.042Zm2.083-2.694V42.893a3.079,3.079,0,0,0-.043-.421,1.014,1.014,0,0,0,.323-.459l1.474-4.952h2.73l1.484,6.107a4.383,4.383,0,0,0,3.389,3.253l1.215.243v3.014H26.456Zm31.9,7.413h-18.2a1.044,1.044,0,0,1-1.042-1.042V54.165H59.4v1.884a1.044,1.044,0,0,1-1.041,1.042Z"></path></g></svg> 