<?xml version="1.0" encoding="UTF-8"?> <svg xmlns="http://www.w3.org/2000/svg" width="61.514" height="63.324" viewBox="0 0 61.514 63.324"><defs><style>.a{fill:#ffc107;}</style></defs><g transform="translate(-0.904 0)"><path class="a" d="M1.96,35.849a1.055,1.055,0,0,1-.325-2.058l4.442-1.443a1.054,1.054,0,1,1,.651,2.006L2.286,35.8a1.091,1.091,0,0,1-.326.051Z"></path><path class="a" d="M6.4,18.641a1.033,1.033,0,0,1-.326-.052L1.634,17.146a1.055,1.055,0,1,1,.651-2.007l4.442,1.443A1.055,1.055,0,0,1,6.4,18.641Z"></path><path class="a" d="M15.669,5.889a1.048,1.048,0,0,1-.853-.435L12.07,1.674A1.055,1.055,0,1,1,13.776.434l2.746,3.779a1.056,1.056,0,0,1-.853,1.676Z"></path><path class="a" d="M60.769,35.849a1.033,1.033,0,0,1-.326-.052L56,34.353a1.054,1.054,0,1,1,.651-2.006l4.442,1.443a1.055,1.055,0,0,1-.325,2.059Z"></path><path class="a" d="M56.327,18.641A1.055,1.055,0,0,1,56,16.583l4.442-1.443a1.055,1.055,0,0,1,.651,2.007L56.653,18.59a1.051,1.051,0,0,1-.326.051Z"></path><path class="a" d="M47.06,5.889a1.055,1.055,0,0,1-.853-1.675L48.953.435a1.055,1.055,0,0,1,1.706,1.24L47.913,5.454a1.051,1.051,0,0,1-.853.435Z"></path><path class="a" d="M53.446,24.947a1.124,1.124,0,0,0-.211-.337L40.851,12.247a.99.99,0,0,0-.738-.317H22.624a1.03,1.03,0,0,0-.759.317L9.5,24.61a1.916,1.916,0,0,0-.232.337,1.368,1.368,0,0,0-.084.4v17.51A1.072,1.072,0,0,0,9.5,43.6L21.864,55.96a1.036,1.036,0,0,0,.759.317H40.112a.99.99,0,0,0,.738-.317l2.4-2.384-.042-.1-.8-2.046-2.743,2.743h-6.2l7.215-7.215L39.86,44.8l-7.447,7.426V43.787H39.48l-.823-2.11H32.412V26.4h9.831V40.137l2.11.823V26.4H51.42V41.677H46.23l6.413,2.489.591-.57a1.053,1.053,0,0,0,.295-.738V25.348a.906.906,0,0,0-.083-.4ZM23.046,14.04h6.2L18.995,24.293h-6.2ZM11.295,26.4h7.088V41.677H11.3V26.4ZM23.046,54.167,12.688,43.787h6.2l10.359,10.38h-6.2ZM30.3,52.226l-8.439-8.439H30.3v8.439Zm0-10.549h-9.81V26.4H30.3V41.677Zm0-17.384H21.991L30.3,15.981Zm2.109,0V15.981l8.333,8.312Zm11.329,0L33.467,14.04h6.2L49.943,24.293h-6.2Z"></path><path class="a" d="M62.117,58.639l-7.764-7.764,3.228-3.207a1.045,1.045,0,0,0-.359-1.729l-4.578-1.772-6.413-2.489-1.878-.717-2.11-.823-2.721-1.055a1.01,1.01,0,0,0-1.118.232,1.048,1.048,0,0,0-.232,1.118l.485,1.245.823,2.11.38,1.013.823,2.152,1.73,4.473.8,2.046.042.1,1.772,4.557a1.052,1.052,0,0,0,.759.633,1.04,1.04,0,0,0,.97-.274l3.228-3.228,7.742,7.764a1.053,1.053,0,0,0,.738.295,1.106,1.106,0,0,0,.76-.295l2.89-2.89a1.084,1.084,0,0,0,0-1.5Zm-3.65,2.152-7.742-7.764a1.058,1.058,0,0,0-.738-.316,1.072,1.072,0,0,0-.76.316L46.4,55.854,44.881,51.93l-.823-2.152-1.73-4.451L41,41.909l4.873,1.878,3,1.181,2.152.823,3.924,1.519-2.827,2.827a1.083,1.083,0,0,0,0,1.5l7.764,7.742-1.414,1.414Z"></path></g></svg> 