<?xml version="1.0" encoding="UTF-8"?> <svg xmlns="http://www.w3.org/2000/svg" width="56.118" height="60.974" viewBox="0 0 56.118 60.974"><defs><style>.a{fill:#4cc0c2;}</style></defs><g transform="translate(-2.428 0)"><path class="a" d="M33.776,9.968a16.876,16.876,0,0,0-3.293-.328,16.113,16.113,0,0,0-8.024,30.08,9.98,9.98,0,0,1,.867.633v4.28a5.213,5.213,0,0,0,5.209,5.208h4.2a5.212,5.212,0,0,0,5.207-5.208V40.284a5.048,5.048,0,0,1,.559-.561A16.119,16.119,0,0,0,33.776,9.968Zm3.686,27.95a6.8,6.8,0,0,0-1.365,1.32,1.04,1.04,0,0,0-.236.661v4.734a3.128,3.128,0,0,1-3.124,3.125h-4.2a3.13,3.13,0,0,1-3.126-3.125V39.852a1.04,1.04,0,0,0-.387-.81A17.776,17.776,0,0,0,23.5,37.913a14.03,14.03,0,0,1,6.986-26.191,14.818,14.818,0,0,1,2.886.287,14.037,14.037,0,0,1,4.094,25.909Z"></path><path class="a" d="M36.107,52.82H24.869a1.042,1.042,0,1,0,0,2.084H36.107a1.042,1.042,0,0,0,0-2.084Z"></path><path class="a" d="M36.107,58.89H24.869a1.042,1.042,0,1,0,0,2.084H36.107a1.042,1.042,0,0,0,0-2.084Z"></path><path class="a" d="M7.23,29.724,3.148,31.05a1.041,1.041,0,0,0,.322,2.032,1.021,1.021,0,0,0,.321-.051l4.082-1.326a1.041,1.041,0,0,0-.643-1.981Z"></path><path class="a" d="M7.873,15.239,3.791,13.913a1.041,1.041,0,1,0-.643,1.981L7.23,17.22a1.03,1.03,0,0,0,.321.051,1.041,1.041,0,0,0,.322-2.032Z"></path><path class="a" d="M16.066,5.556A1.041,1.041,0,0,0,16.907,3.9L14.383.429A1.042,1.042,0,1,0,12.7,1.654l2.524,3.473A1.044,1.044,0,0,0,16.066,5.556Z"></path><path class="a" d="M57.826,31.05l-4.081-1.326A1.041,1.041,0,0,0,53.1,31.7l4.081,1.326a1.03,1.03,0,0,0,.321.051,1.041,1.041,0,0,0,.322-2.032Z"></path><path class="a" d="M57.183,13.913,53.1,15.239a1.041,1.041,0,0,0,.322,2.032,1.021,1.021,0,0,0,.321-.051l4.081-1.326a1.041,1.041,0,0,0-.643-1.981Z"></path><path class="a" d="M46.59.429,44.067,3.9a1.041,1.041,0,1,0,1.684,1.225l2.523-3.473A1.041,1.041,0,1,0,46.59.429Z"></path><path class="a" d="M36.131,14.9a1.042,1.042,0,1,0-1.086,1.778,14.171,14.171,0,0,1,5.729,6.77,1.041,1.041,0,0,0,1.933-.773A16.268,16.268,0,0,0,36.131,14.9Z"></path></g></svg> 