<?xml version="1.0" encoding="UTF-8"?> <svg xmlns="http://www.w3.org/2000/svg" width="49.092" height="63.135" viewBox="0 0 49.092 63.135"><defs><style>.a{fill:#f54785;}</style></defs><g transform="translate(-7.021 -0.001)"><path class="a" d="M31.942,55.736A1.041,1.041,0,0,0,30.9,56.778v5.316a1.042,1.042,0,0,0,2.084,0V56.778a1.043,1.043,0,0,0-1.042-1.042Z"></path><path class="a" d="M39.6,53.437a1.042,1.042,0,1,0-1.6,1.331L41.4,58.879a1.042,1.042,0,0,0,1.6-1.331L39.6,53.437Z"></path><path class="a" d="M24.777,53.12l-4.111,3.406A1.042,1.042,0,0,0,22,58.129l4.111-3.406a1.042,1.042,0,0,0-1.331-1.6Z"></path><path class="a" d="M44.933,23.267V13.4a4.321,4.321,0,0,0-.042-.442.986.986,0,0,0,.042-.211,1.018,1.018,0,0,0-.195-.574A4.31,4.31,0,0,0,43.7,10.356L34.9,1.285a4.469,4.469,0,0,0-6.268,0l-8.8,9.071a4.338,4.338,0,0,0-1.038,1.815,1.018,1.018,0,0,0-.195.574,1.066,1.066,0,0,0,.042.211c-.013.146-.041.291-.041.441v9.48a.979.979,0,0,0-.128.094L8.154,34.343a4.4,4.4,0,0,0,3.233,7.348h7.447a4.34,4.34,0,0,0,.733,1.347l4.266,5.293a4.35,4.35,0,0,0,3.4,1.625H36.3a4.352,4.352,0,0,0,3.4-1.627l4.264-5.289a4.387,4.387,0,0,0,.734-1.349h7.047a4.4,4.4,0,0,0,3.235-7.349L44.933,23.267ZM20.684,39.823V13.783H42.85v26.04Zm9.445-37.09a2.285,2.285,0,0,1,3.276,0L42.1,11.7H21.429ZM9.1,37.276A2.279,2.279,0,0,1,9.7,35.742l8.9-9.816V39.607H11.386A2.3,2.3,0,0,1,9.1,37.276Zm28.973,9.747a2.267,2.267,0,0,1-1.776.85H27.232a2.277,2.277,0,0,1-1.778-.85l-4.123-5.116H42.2Zm13.669-7.415H44.933V26.366l8.506,9.376a2.319,2.319,0,0,1-1.693,3.866Z"></path><path class="a" d="M31.767,22.143a6.668,6.668,0,1,0,6.667,6.667,6.677,6.677,0,0,0-6.667-6.667Zm0,11.252A4.584,4.584,0,1,1,36.35,28.81,4.59,4.59,0,0,1,31.767,33.4Z"></path></g></svg> 