<?xml version="1.0" encoding="UTF-8"?> <svg xmlns="http://www.w3.org/2000/svg" width="63.377" height="63.467" viewBox="0 0 63.377 63.467"><defs><style>.a{fill:#f54785;}</style></defs><g transform="translate(-0.044)"><path class="a" d="M17.594,32.788h1.168v3.826a1.054,1.054,0,0,0,.309.746l7.007,7.007a1.054,1.054,0,0,0,.746.309h3.9V46a1.055,1.055,0,1,0,2.11,0V44.676h3.9a1.054,1.054,0,0,0,.746-.309l7.007-7.007a1.054,1.054,0,0,0,.309-.746V32.788h1.255a1.055,1.055,0,0,0,0-2.11H44.794V26.706a1.054,1.054,0,0,0-.309-.746l-7.007-7.006a1.054,1.054,0,0,0-.746-.309h-3.9V17.378a1.055,1.055,0,0,0-2.11,0v1.267h-3.9a1.054,1.054,0,0,0-.746.309L19.071,25.96a1.054,1.054,0,0,0-.309.746v3.972H17.594a1.055,1.055,0,1,0,0,2.11Zm3.278-5.645,6.389-6.388h3.461v2.5a1.055,1.055,0,0,0,2.11,0v-2.5H36.3l6.389,6.388v3.535H40.175a1.055,1.055,0,0,0,0,2.11h2.509v3.389L36.3,42.566H32.832V40.13a1.055,1.055,0,1,0-2.11,0v2.435H27.26l-6.389-6.389V32.787h2.6a1.055,1.055,0,0,0,0-2.11h-2.6V27.143Z"></path><path class="a" d="M1.1,35.787a1.055,1.055,0,0,0,1.055-1.055V32.787H7.83v8.1a1.054,1.054,0,0,0,.309.746L21.376,54.869a1.054,1.054,0,0,0,.746.309h8.6v6.179H28.776a1.055,1.055,0,1,0,0,2.11h6a1.055,1.055,0,0,0,0-2.11H32.83V55.178h8.01a1.054,1.054,0,0,0,.746-.309L54.821,41.634a1.054,1.054,0,0,0,.309-.746v-8.1h6.181v1.945a1.055,1.055,0,0,0,2.11,0v-6a1.055,1.055,0,1,0-2.11,0v1.945H55.13V22.17a1.054,1.054,0,0,0-.309-.746L41.587,8.188a1.054,1.054,0,0,0-.746-.309h-8.01V2.11h1.945a1.055,1.055,0,1,0,0-2.11h-6a1.055,1.055,0,1,0,0,2.11h1.945V7.88h-8.6a1.054,1.054,0,0,0-.746.309L8.139,21.424a1.059,1.059,0,0,0-.309.746v8.508H2.154V28.733a1.055,1.055,0,1,0-2.11,0v6A1.056,1.056,0,0,0,1.1,35.787Zm8.84-13.18L22.559,9.989h8.163v1.35a1.055,1.055,0,1,0,2.11,0V9.989H40.4L53.022,22.607v8.071h-.851a1.055,1.055,0,1,0,0,2.11h.851v7.664L40.4,53.068H32.832v-.942a1.055,1.055,0,0,0-2.11,0v.942H22.559L9.94,40.452V32.788h1.444a1.055,1.055,0,1,0,0-2.11H9.94V22.607Z"></path></g></svg> 