<?xml version="1.0" encoding="UTF-8"?> <!-- Creator: CorelDRAW X8 --> <svg xmlns="http://www.w3.org/2000/svg" xmlns:xlink="http://www.w3.org/1999/xlink" xml:space="preserve" width="87.4313mm" height="17.2562mm" style="shape-rendering:geometricPrecision; text-rendering:geometricPrecision; image-rendering:optimizeQuality; fill-rule:evenodd; clip-rule:evenodd" viewBox="0 0 4574 903"> <defs> <style type="text/css"> <![CDATA[ .fil1 {fill:#4D4D4D} .fil2 {fill:#4E4E4E} .fil3 {fill:#BDBDBD} .fil0 {fill:#F58F00} ]]> </style> </defs> <g id="Слой_x0020_1"> <metadata id="CorelCorpID_0Corel-Layer"></metadata> <path class="fil0" d="M0 398c0,118 20,191 83,283 16,23 31,40 50,60 21,20 37,35 60,51 65,46 158,85 246,85 57,0 78,2 136,-12 31,-8 50,-16 77,-27 28,-12 42,-22 65,-36 12,-7 18,-12 29,-21 6,-5 9,-7 15,-11 6,-6 10,-6 13,-16l-487 0c-6,-26 -41,-98 -47,-126 19,0 38,0 57,0 53,0 47,10 47,-44l-57 0c-4,-20 -46,-110 -47,-126l104 0 0 -41c-63,0 -53,5 -66,-26l-38 -101 104 0 0 -44 -57 0 -23 -62c-6,-15 -23,-49 -24,-64l104 0 0 -41c-64,0 -53,8 -69,-35 -5,-15 -12,-28 -16,-44 -16,4 -40,20 -53,29l-47 35c-58,46 -107,126 -133,195 -14,38 -26,88 -26,139z"></path> <path class="fil1" d="M4274 104l123 0 0 357 -212 0c44,-83 36,-61 60,-161 5,-20 29,-169 29,-196zm-202 357l-38 0c-5,7 -10,10 -10,22l0 192c0,24 61,18 76,16 14,-2 10,-3 22,-6l0 -133 354 0 0 123c0,27 95,24 95,4 0,-43 4,-184 -4,-215 -23,-5 -32,-3 -60,-3l0 -411c0,-24 -13,-37 -37,-37l-263 0c-42,0 -38,43 -44,100 -39,318 -82,313 -91,348z"></path> <path class="fil0" d="M2198 38l0 486c0,33 20,26 49,30 7,1 62,3 62,-17l0 -215 199 0 0 215c0,11 13,14 22,15 29,3 40,5 69,0 11,-2 20,-7 20,-22l0 -495c0,-34 -67,-25 -89,-22 -10,1 -22,4 -22,15l0 196 -199 0 0 -196c0,-24 -71,-18 -90,-14 -14,3 -21,9 -21,24z"></path> <path class="fil1" d="M3294 123l18 55c6,19 12,35 18,54 7,20 13,36 18,55 6,21 14,37 19,57l-145 0 72 -221zm-240 410c0,16 2,18 22,20 34,3 22,5 63,-1 12,-2 17,-6 22,-16 12,-25 22,-81 36,-107l199 0c1,15 27,98 44,123 21,0 31,3 47,4l51 -4 9 -10c3,-10 -63,-196 -72,-220 -9,-25 -17,-49 -25,-73 -8,-24 -19,-48 -26,-72l-50 -146c-10,-22 -41,-22 -76,-22 -79,0 -68,3 -98,92 -12,38 -146,414 -146,432z"></path> <path class="fil0" d="M1832 123c1,14 12,41 17,56l53 165 -146 0c7,-14 14,-39 19,-54 6,-19 46,-159 57,-167zm-243 417c0,2 7,9 9,12 27,0 35,4 58,1 31,-4 34,5 43,-23 6,-17 11,-33 17,-50 4,-14 11,-36 15,-51l199 0c3,11 6,17 9,26 4,9 7,20 10,28 23,75 7,67 73,72 15,2 22,-2 34,-2 40,-3 29,-15 5,-87 -9,-27 -17,-46 -26,-73 -8,-26 -16,-46 -25,-72l-87 -251c-18,-55 -13,-61 -88,-61 -82,0 -70,7 -99,94 -9,26 -16,46 -25,73l-100 288c-6,21 -22,59 -22,76z"></path> <path class="fil1" d="M3813 281l-38 0 0 -180 56 0c60,0 89,40 83,95 -6,59 -37,85 -101,85zm-149 -234l0 490c0,24 74,18 91,15 11,-2 20,-7 20,-22l0 -164c76,0 134,3 196,-44 13,-10 33,-35 40,-51 33,-77 31,-167 -42,-222 -59,-45 -183,-36 -264,-36 -23,0 -41,12 -41,34z"></path> <path class="fil0" d="M1115 268c0,51 -1,97 16,142 31,86 97,149 202,149 48,0 83,0 126,-19 52,-23 51,-29 51,-85 0,-51 -25,-29 -41,-20 -8,5 -17,9 -25,13 -58,29 -146,23 -184,-41 -62,-108 -26,-351 148,-302 52,14 99,69 99,18l0 -50c0,-40 -85,-67 -130,-67l-35 0c-70,0 -133,39 -164,79 -40,49 -63,113 -63,183z"></path> <path class="fil1" d="M2783 57c0,68 -5,455 3,489 12,6 45,11 62,8 25,-3 48,2 48,-27l0 -423 184 0c2,-11 6,-10 6,-22 0,-26 3,-47 -6,-66 -33,-8 -212,-3 -259,-3 -29,0 -38,16 -38,44z"></path> <path class="fil0" d="M366 256c0,24 -3,34 10,34l531 0c-1,-19 -9,-28 -13,-44 -162,0 -341,3 -503,0 -13,0 -25,-3 -25,10z"></path> <path class="fil0" d="M366 458l556 0c2,-7 3,-8 3,-16l0 -25 -559 0 0 41z"></path> <path class="fil0" d="M366 619c0,15 26,9 54,9l455 0c4,-14 15,-23 16,-44l-525 0 0 35z"></path> <path class="fil0" d="M366 120l452 0c-6,-9 -30,-41 -41,-41l-411 0 0 41z"></path> <path class="fil1" d="M4312 764l0 107 15 0 0 -95c7,8 8,14 11,25l23 61c5,8 0,9 14,9 11,0 14,-22 24,-45 4,-11 7,-16 10,-25 2,-6 2,-6 4,-12l6 82c27,0 19,6 19,-104 0,-13 -24,-23 -35,3 -3,9 -6,17 -9,26 -4,11 -14,41 -22,47l-28 -74c-9,-21 -32,-18 -32,-5z"></path> <path class="fil1" d="M3054 764l0 98c0,7 3,9 10,9l120 0 0 32 13 0c0,-47 3,-46 -13,-48 0,-21 0,-42 0,-63 0,-62 -19,-34 -19,-28l0 91 -38 0 0 -101 -16 0 0 101 -38 0 0 -91c0,-14 -19,-14 -19,0z"></path> <path class="fil2" d="M3910 764l0 107c36,0 43,-59 70,-79l0 79 19 0 0 -107c0,-7 -7,-22 -27,8l-38 59c-5,6 -2,2 -5,5 0,-14 0,-29 0,-44 0,-15 5,-38 -9,-38 -7,0 -10,3 -10,10z"></path> <path class="fil2" d="M1450 855l-29 0 0 -34 26 0c7,0 15,8 15,15 0,10 -2,19 -12,19zm-10 -50l-19 0 0 -35 32 3c2,11 7,32 -13,32zm-38 -38l0 95c0,14 15,9 48,9 34,0 44,-51 12,-60 5,-6 26,-31 2,-49 -7,-6 -62,-18 -62,5z"></path> <path class="fil1" d="M2660 871l82 0 0 32 12 0 0 -48 -12 0 0 -91c0,-14 -19,-14 -19,0l0 91 -48 0c0,-93 9,-100 -15,-101l0 117z"></path> <path class="fil1" d="M2331 814c0,-37 17,-44 38,-44 39,0 41,89 -6,89 -22,0 -32,-23 -32,-45zm-19 -3c0,90 104,80 104,3 0,-87 -104,-74 -104,-3z"></path> <path class="fil1" d="M1507 871c12,0 15,0 24,-14l45 -68 0 82 16 0 0 -107c0,-41 -50,48 -53,51l-17 25 0 -86 -15 0 0 117z"></path> <path class="fil1" d="M3219 764l0 107c24,0 14,-3 40,-39 9,-13 17,-32 29,-40l0 79 16 0 0 -117c-20,1 -18,11 -38,38 -9,13 -20,37 -32,44l0 -82c-10,1 -15,-1 -15,10z"></path> <path class="fil2" d="M3427 764l0 107 19 0 0 -50 47 0 0 50 19 0 0 -107c0,-14 -19,-14 -19,0l0 41 -47 0c0,-34 5,-51 -9,-51 -8,0 -10,3 -10,10z"></path> <path class="fil2" d="M1835 764l0 107 19 0 0 -50 48 0 0 50 18 0 0 -107c0,-14 -18,-14 -18,0l0 41 -48 0c0,-34 5,-51 -9,-51 -8,0 -10,3 -10,10z"></path> <path class="fil2" d="M1611 865l0 9c41,-1 47,-72 47,-104l29 0 0 101 19 0 0 -107c0,-15 -18,-10 -54,-10 -18,0 -9,60 -24,90 -8,15 -17,9 -17,21z"></path> <path class="fil2" d="M2416 865c0,16 28,14 38,-28 3,-12 5,-22 7,-35 5,-33 -4,-32 31,-32l0 92c0,11 6,9 19,9l0 -107c0,-15 -18,-10 -54,-10 -18,0 -5,55 -23,90 -10,19 -18,6 -18,21z"></path> <path class="fil1" d="M2543 764l0 107 19 0 0 -50 47 0 0 50 16 0 0 -117c-20,1 -16,-1 -16,51l-47 0c0,-34 5,-51 -10,-51 -7,0 -9,3 -9,10z"></path> <path class="fil1" d="M1333 777l19 50 -35 0 16 -50zm-47 94c14,0 17,7 25,-28l47 0c1,13 5,15 7,28l18 0c0,-14 -22,-68 -30,-93 -5,-16 -5,-24 -20,-24 -14,0 -30,65 -38,86 -4,12 -8,17 -9,31z"></path> <path class="fil1" d="M2988 780c1,10 12,39 16,47l-35 0c1,-12 11,-42 19,-47zm-50 91c16,0 14,3 19,-9 8,-20 -10,-19 44,-19 11,0 13,19 16,28l18 0 -31 -92c-5,-15 -4,-25 -19,-25 -12,0 -14,13 -17,24 -4,13 -7,21 -11,30 -6,17 -18,47 -19,63z"></path> <path class="fil1" d="M1109 764l0 107 15 0 0 -91c0,-14 13,-10 42,-10 7,0 9,2 9,10l0 91 16 0 0 -107c0,-16 -29,-10 -73,-10 -7,0 -9,3 -9,10z"></path> <path class="fil2" d="M4485 859l0 -42 26 0c7,0 12,6 12,13l0 13c0,14 -23,16 -38,16zm-19 -95l0 98c0,13 14,9 45,9 41,0 44,-69 0,-69l-26 0c0,-33 5,-48 -9,-48 -7,0 -10,3 -10,10z"></path> <path class="fil2" d="M3560 859l0 -42 25 0c9,0 16,11 16,19 0,20 -22,23 -41,23zm-19 -89c0,31 -4,73 3,101 59,0 73,2 73,-41 0,-32 -39,-28 -57,-28l0 -38c0,-13 -19,-17 -19,6z"></path> <path class="fil2" d="M1248 814l-13 0 0 -44c33,0 35,4 35,29 0,10 -12,15 -22,15zm-32 -47l0 104 19 0 0 -41c74,0 67,-76 13,-76 -14,0 -32,-3 -32,13z"></path> <path class="fil1" d="M1781 855c-7,4 -15,3 -27,2 -2,-9 -2,-11 -2,-21l4 -20c12,-4 31,0 37,9 10,13 2,27 -12,30zm-44 -91l0 107 44 0c43,0 49,-69 -3,-69l-22 0 0 -32c0,-23 -19,-19 -19,-6z"></path> <path class="fil1" d="M2862 776c22,-5 47,-17 47,13 0,10 -8,13 -17,15 -18,3 -20,-5 -24,10 14,19 53,-11 41,38 -30,15 -29,1 -50,0 0,13 -2,12 8,17 17,10 64,8 64,-29 0,-22 -10,-21 -19,-32 27,-7 20,-54 -12,-54 -22,0 -38,-3 -38,22z"></path> <path class="fil2" d="M2776 764l0 107 64 0c-1,-19 1,-16 -45,-16l0 -38 38 0 0 -12 -38 0 0 -35 45 0c-1,-20 1,-16 -54,-16 -7,0 -10,3 -10,10z"></path> <path class="fil1" d="M1968 849l0 -32c24,0 41,-4 41,23 0,16 -41,27 -41,9zm-16 22c21,0 76,7 76,-31 0,-56 -60,-25 -60,-48l0 -38 -16 0 0 117z"></path> <path class="fil2" d="M2091 764l0 107 57 0c12,0 1,1 9,-3 -4,-17 -10,-13 -50,-13 0,-45 -8,-38 41,-38l0 -12c-47,0 -41,5 -41,-25 0,-14 15,-10 47,-10 0,-20 2,-16 -53,-16 -8,0 -10,3 -10,10z"></path> <path class="fil1" d="M4220 764l0 107 57 0c12,0 1,1 9,-3 -4,-17 -10,-13 -50,-13 0,-45 -8,-38 41,-38l0 -12c-47,0 -41,5 -41,-25 0,-14 15,-10 47,-10 0,-20 2,-16 -54,-16 -7,0 -9,3 -9,10z"></path> <path class="fil1" d="M3683 764l0 107 63 0c0,-19 2,-16 -47,-16 0,-45 -8,-38 41,-38l0 -12c-47,0 -41,5 -41,-25 0,-14 15,-10 47,-10 0,-20 2,-16 -54,-16 -7,0 -9,3 -9,10z"></path> <path class="fil1" d="M2214 808c0,30 6,66 48,66 11,0 34,-4 36,-17 3,-26 -29,19 -55,-8 -12,-12 -24,-79 25,-79 13,0 16,7 28,10 0,-16 1,-26 -34,-26 -29,0 -48,26 -48,54z"></path> <path class="fil1" d="M3806 805c0,20 -2,40 14,56 15,15 68,23 68,-12 -13,1 -34,19 -54,1 -13,-13 -19,-80 20,-80 21,0 19,8 34,10 0,-15 3,-13 -6,-20 -16,-12 -76,-9 -76,45z"></path> <path class="fil1" d="M4024 805c0,21 -2,38 12,54 14,15 39,19 59,10 10,-4 11,-7 11,-20 -11,1 -39,21 -57,-2 -5,-6 -8,-23 -8,-30 -4,-73 62,-38 65,-37 0,-15 3,-13 -6,-20 -15,-12 -76,-11 -76,45z"></path> <path class="fil1" d="M3323 770l35 0 0 101 15 0 0 -91c0,-13 10,-10 35,-10l0 -16c-81,0 -85,-7 -85,16z"></path> <path class="fil1" d="M4116 770c45,0 34,-16 34,101l16 0 0 -91c0,-13 10,-10 35,-10 0,-22 0,-16 -76,-16 -10,0 -9,6 -9,16z"></path> <path class="fil2" d="M3632 764l0 107 19 0 0 -107c0,-7 -2,-10 -9,-10 -7,0 -10,3 -10,10z"></path> <path class="fil1" d="M2041 770l0 92c0,7 2,9 9,9l9 0 0 -107c0,-13 -18,-17 -18,6z"></path> <path class="fil1" d="M4558 764l0 107 16 0 0 -117c-10,1 -16,-1 -16,10z"></path> <path class="fil3" d="M1781 855l-25 0 0 -39 -4 20c0,10 0,12 2,21 12,1 20,2 27,-2z"></path> </g> </svg> 